# xmcd
#
# Track frame offsets:
#	150
#	5585
#	30033
#	49705
#	66927
#	85300
#	102818
#	124288
#	142258
#	159713
#	179955
#	197775
#	215656
#	233001
#	251292
#	271770
#
# Disc length: 3862 seconds
#
# Revision: 1
# Processed by: cddbd v1.5.2PL0 Copyright (c) Steve Scherf et al.
# Submitted via: audiograbber 1.83.01
#
DISCID=e40f1410
DTITLE=Brazilian Love Affair - Uma Brasileira and Rio De Janeiro Blue 
DYEAR=2007
DGENRE=Pop
TTITLE0=PRA ADRIANO (INTRO)
TTITLE1=VOCE E LINDA
TTITLE2=QUANDO CHOVE
TTITLE3=FRANCI
TTITLE4=FERIAS NO BRASIL
TTITLE5=UMA BRASILEIRA
TTITLE6=FORTUNA
TTITLE7=DEMAIS
TTITLE8=NINHO DE COBRA
TTITLE9=ONE WAY
TTITLE10=ESTA EM MIM
TTITLE11=AMIGA
TTITLE12=I'M OUT OF YOUR LIFE
TTITLE13=DEMAIS (A TOUCH OF BOSSA MIX)
TTITLE14=UMA BRASILEIRA (LOS LOCOS RE-MIX)
TTITLE15=UMA BRASILEIRA (DISCO 70 RE-MIX)
EXTD=DISC 1
EXTT0=
EXTT1=
EXTT2=
EXTT3=
EXTT4=
EXTT5=
EXTT6=
EXTT7=
EXTT8=
EXTT9=
EXTT10=
EXTT11=
EXTT12=
EXTT13=
EXTT14=
EXTT15=
PLAYORDER=
